<svg id="Layer_1" data-name="Layer 1" xmlns="http://www.w3.org/2000/svg" viewBox="0 0 1278.4 74.94"><defs><style>.cls-1,.cls-2{fill:#677b8c;}.cls-1{fill-rule:evenodd;}</style></defs><title>FACEBOOK_FamilyLockup_logo_1L_BlueGray_RGB</title><path class="cls-1" d="M975.05,70.83c-21,0-37.29,15.39-37.29,36.18a35.43,35.43,0,0,0,11.71,26.76,3,3,0,0,1,1,2.12l.2,6.63a3,3,0,0,0,4.19,2.64l7.4-3.26a3,3,0,0,1,2-.15,40.45,40.45,0,0,0,10.79,1.43c21,0,37.3-15.39,37.3-36.17S996.07,70.83,975.05,70.83Zm22.4,27.84L986.5,116a5.6,5.6,0,0,1-8.09,1.49L969.7,111a2.24,2.24,0,0,0-2.7,0l-11.77,8.93a1.77,1.77,0,0,1-2.57-2.35l11-17.38a5.6,5.6,0,0,1,8.09-1.5l8.71,6.54a2.24,2.24,0,0,0,2.69,0l11.77-8.93A1.77,1.77,0,0,1,997.45,98.67Z" transform="translate(-72.12 -70.65)"/><g id="WA_Logo" data-name="WA Logo"><path class="cls-1" d="M1219.49,81.54a37.13,37.13,0,0,0-58.43,44.79l-5.27,19.24,19.68-5.16a37.08,37.08,0,0,0,17.75,4.52h0a37.14,37.14,0,0,0,26.26-63.39Zm-26.26,57.12h0a30.82,30.82,0,0,1-15.71-4.3l-1.13-.67-11.68,3.06,3.12-11.38-.73-1.17a30.86,30.86,0,1,1,26.14,14.46Zm16.93-23.11c-.93-.47-5.49-2.71-6.34-3s-1.47-.46-2.09.46-2.4,3-2.94,3.64-1.08.7-2,.23a25.38,25.38,0,0,1-7.46-4.6,28.11,28.11,0,0,1-5.16-6.43c-.54-.93-.06-1.43.41-1.89s.93-1.08,1.39-1.63a6.39,6.39,0,0,0,.93-1.54,1.72,1.72,0,0,0-.08-1.63c-.23-.46-2.09-5-2.86-6.89s-1.52-1.56-2.09-1.59-1.16,0-1.77,0a3.41,3.41,0,0,0-2.48,1.16,10.4,10.4,0,0,0-3.25,7.74c0,4.56,3.33,9,3.79,9.59s6.54,10,15.85,14a52.64,52.64,0,0,0,5.29,2,12.75,12.75,0,0,0,5.84.36c1.78-.26,5.49-2.24,6.26-4.41a7.74,7.74,0,0,0,.55-4.41C1211.7,116.24,1211.08,116,1210.16,115.55Z" transform="translate(-72.12 -70.65)"/></g><path class="cls-2" d="M1118.8,84.11a18.7,18.7,0,0,0-10.72-10.72,26.85,26.85,0,0,0-8.9-1.71c-3.91-.18-5.16-.22-15.12-.22s-11.2,0-15.11.22a26.85,26.85,0,0,0-8.9,1.71,18.7,18.7,0,0,0-10.72,10.72,26.8,26.8,0,0,0-1.71,8.9c-.18,3.91-.22,5.16-.22,15.11s0,11.21.22,15.12a26.85,26.85,0,0,0,1.71,8.9,18.78,18.78,0,0,0,10.72,10.72,26.63,26.63,0,0,0,8.9,1.7c3.91.18,5.16.23,15.11.23s11.21,0,15.12-.23a26.63,26.63,0,0,0,8.9-1.7,18.78,18.78,0,0,0,10.72-10.72,26.85,26.85,0,0,0,1.71-8.9c.17-3.91.22-5.16.22-15.12s0-11.2-.22-15.11A26.8,26.8,0,0,0,1118.8,84.11Zm-4.89,38.83a20.3,20.3,0,0,1-1.27,6.81,11.17,11.17,0,0,1-2.74,4.21,11.29,11.29,0,0,1-4.21,2.74,20.3,20.3,0,0,1-6.81,1.27c-3.87.17-5,.21-14.82.21s-10.94,0-14.81-.21a20.24,20.24,0,0,1-6.81-1.27,12.19,12.19,0,0,1-7-6.95,20.63,20.63,0,0,1-1.26-6.81c-.17-3.87-.21-5-.21-14.82s0-11,.21-14.81a20.51,20.51,0,0,1,1.26-6.81,12.25,12.25,0,0,1,7-7,20.31,20.31,0,0,1,6.81-1.26c3.87-.18,5-.21,14.81-.21s11,0,14.82.21a20.37,20.37,0,0,1,6.81,1.26,11.32,11.32,0,0,1,4.21,2.75,11.17,11.17,0,0,1,2.74,4.21,20.18,20.18,0,0,1,1.27,6.81c.17,3.86.21,5,.21,14.81S1114.08,119.07,1113.91,122.94ZM1084.06,89.3a18.83,18.83,0,1,0,18.83,18.82A18.83,18.83,0,0,0,1084.06,89.3Zm0,31a12.22,12.22,0,1,1,12.23-12.22A12.23,12.23,0,0,1,1084.06,120.34Zm19.57-36.19a4.4,4.4,0,1,0,4.4,4.4A4.4,4.4,0,0,0,1103.63,84.15Z" transform="translate(-72.12 -70.65)"/><path class="cls-2" d="M866,71.05a37.3,37.3,0,0,0-5.8,74.14V119.12h-9.53V108.35h9.53v-8.22c0-9.35,5.54-14.53,14-14.53a52.28,52.28,0,0,1,8.32.79V95.5H878c-4.63,0-6.11,2.9-6.11,5.85v7h10.36l-1.66,10.77h-8.7v26.07A37.3,37.3,0,0,0,866,71.05Z" transform="translate(-72.12 -70.65)"/><path class="cls-2" d="M1340.52,87.28a27,27,0,0,0-10.65-5.2,33.74,33.74,0,0,0-6.78-.86c-1.7,0-3.4,0-5.1,0h-24.17c-1.7,0-3.4,0-5.1,0a33.65,33.65,0,0,0-6.78.86,26.76,26.76,0,0,0,0,52.09,32.94,32.94,0,0,0,6.78.85c1.7.06,3.4,0,5.1,0H1318c1.7,0,3.4,0,5.1,0a32.94,32.94,0,0,0,6.78-.85,26.74,26.74,0,0,0,10.65-46.89Zm-11.8,28.09a9.56,9.56,0,0,1-3.93,1.58,26.34,26.34,0,0,1-4.25.23h-29.27A26.34,26.34,0,0,1,1287,117a9.53,9.53,0,0,1-3.93-1.56,8.8,8.8,0,0,1,0-14.51,9.72,9.72,0,0,1,3.93-1.59,26.33,26.33,0,0,1,4.25-.22h29.27a26.33,26.33,0,0,1,4.25.22,9.55,9.55,0,0,1,3.93,1.57,8.8,8.8,0,0,1,0,14.51Z" transform="translate(-72.12 -70.65)"/><path class="cls-2" d="M126.11,73.15v9.48a1,1,0,0,1-1,1H84.38V103H118a1,1,0,0,1,1,1v9.48a1,1,0,0,1-1,1H84.38v28.64a1,1,0,0,1-1,1H73.15a1,1,0,0,1-1-1V73.15a1,1,0,0,1,1-1h51.93A1,1,0,0,1,126.11,73.15Z" transform="translate(-72.12 -70.65)"/><path class="cls-2" d="M209.67,144.24H198.44a1.13,1.13,0,0,1-1.19-.92c-1.49-5.93-3.3-12.16-5.36-18.45H157.43c-2.06,6.29-3.86,12.52-5.31,18.45a1.11,1.11,0,0,1-1.18.92H140.12c-.72,0-1.13-.41-.93-1.13,6.49-23,16.38-48.32,26.38-69.65a2,2,0,0,1,2-1.34h14.63a1.88,1.88,0,0,1,2,1.19c9.94,21.53,19.88,46.82,26.42,69.8C210.8,143.83,210.39,144.24,209.67,144.24Zm-21.59-30.49c-3.76-10.41-7.93-20.82-12.21-30.29h-2.42c-4.28,9.47-8.5,19.88-12.26,30.29Z" transform="translate(-72.12 -70.65)"/><path class="cls-2" d="M228.11,108.8c0-22.15,14.52-38,35.75-38h1.54c13.19,0,23.39,6.7,28.85,16.38a1,1,0,0,1-.41,1.45l-9.07,4.48a1.28,1.28,0,0,1-1.8-.41c-3.81-6.65-9.53-10.15-18-10.15h-1.54c-13,0-22.36,10.2-22.36,25.76,0,15.14,8.86,25.55,22.36,25.55H265c8.66,0,13.7-2.94,17.57-7.42a1.3,1.3,0,0,1,1.7-.36l9.32,4.53a.88.88,0,0,1,.52.72,1.42,1.42,0,0,1-.31.78c-5.72,8.34-16,13.49-28.59,13.49h-1.55C241.71,145.58,228.11,130.33,228.11,108.8Z" transform="translate(-72.12 -70.65)"/><path class="cls-2" d="M376.26,133.73v9.48a1,1,0,0,1-1,1H321.14a1,1,0,0,1-1-1V73.15a1,1,0,0,1,1-1h53.17a1,1,0,0,1,1,1v9.48a1,1,0,0,1-1,1H332.37v18.75h34.11a1,1,0,0,1,1,1v9.38a1,1,0,0,1-1,1H332.37V132.7h42.86A1,1,0,0,1,376.26,133.73Z" transform="translate(-72.12 -70.65)"/><path class="cls-2" d="M469.4,124.46c0,12.47-9.48,19.78-26.78,19.78H407.17a1,1,0,0,1-1-1V73.15a1,1,0,0,1,1-1h32.3c16.9,0,25.71,6.8,25.71,18.65,0,7.11-3.14,12.83-12.16,15.56C464.46,108.75,469.4,115.6,469.4,124.46ZM439.22,83.35H418.4v19.37h20.82c9.68,0,13.6-3.29,13.6-9.68S448.9,83.35,439.22,83.35Zm17.61,40c0-6.39-4-9.74-14.16-9.74H418.4V133h24.27C453.07,133,456.83,129.77,456.83,123.38Z" transform="translate(-72.12 -70.65)"/><path class="cls-2" d="M491,108.18c0-21.69,14.42-37.4,37.09-37.4h1.54c22.67,0,37.09,15.61,37.09,37.4s-14.42,37.4-37.09,37.4h-1.54C505.41,145.58,491,130,491,108.18Zm38.63,25.66c14.74,0,24.11-10.15,24.11-25.66s-9.27-25.65-24.11-25.65h-1.54c-14.74,0-24.11,10.15-24.11,25.65s9.27,25.66,24.11,25.66Z" transform="translate(-72.12 -70.65)"/><path class="cls-2" d="M587.63,108.18c0-21.69,14.42-37.4,37.09-37.4h1.54c22.67,0,37.1,15.61,37.1,37.4s-14.43,37.4-37.1,37.4h-1.54C602.05,145.58,587.63,130,587.63,108.18Zm38.63,25.66c14.74,0,24.11-10.15,24.11-25.66s-9.27-25.65-24.11-25.65h-1.54c-14.73,0-24.11,10.15-24.11,25.65s9.27,25.66,24.11,25.66Z" transform="translate(-72.12 -70.65)"/><path class="cls-2" d="M752.22,144.24H738.67a1.57,1.57,0,0,1-1.39-.72,284.36,284.36,0,0,0-29.88-30.08h-6v29.77a1,1,0,0,1-1,1h-10.2a1,1,0,0,1-1-1V73.15a1,1,0,0,1,1-1h10.2a1,1,0,0,1,1,1v28.44h6.08a238.67,238.67,0,0,0,27-28.85,1.42,1.42,0,0,1,1.34-.62h12.77c.62,0,.93.31.93.72a1.27,1.27,0,0,1-.36.78,251.28,251.28,0,0,1-32.25,33.53A314.19,314.19,0,0,1,752.84,143C753.35,143.63,753,144.24,752.22,144.24Z" transform="translate(-72.12 -70.65)"/></svg>